<svg width="32" height="32" viewBox="0 0 26 26" fill="none" xmlns="http://www.w3.org/2000/svg">
<path class='opacity' d="M13 0.625C19.8345 0.625 25.375 6.16548 25.375 13C25.375 19.8345 19.8345 25.375 13 25.375C6.16548 25.375 0.625 19.8345 0.625 13C0.625 6.16548 6.16548 0.625 13 0.625Z" fill="white" fill-opacity="0"/>
<path class='stroke' d="M13 0.625C19.8345 0.625 25.375 6.16548 25.375 13C25.375 19.8345 19.8345 25.375 13 25.375C6.16548 25.375 0.625 19.8345 0.625 13C0.625 6.16548 6.16548 0.625 13 0.625Z" stroke="#FFFFFF80" stroke-width="0.75"/>
<g clip-path="url(#clip0_158_5614)">
<path fill-rule="evenodd" clip-rule="evenodd" d="M13 7C16.3135 7 19 9.68654 19 13C19 15.9952 16.8064 18.4775 13.9377 18.9274V14.7354H15.3359L15.6016 13.0006H15.6012L15.6013 13H13.9377V11.875C13.9377 11.4008 14.1698 10.9376 14.9157 10.9376H15.6725V9.46103C15.6725 9.46103 15.6724 9.46101 15.6722 9.46098V9.46041C15.6722 9.46041 14.9854 9.34313 14.3289 9.34313C12.9587 9.34313 12.0626 10.1742 12.0626 11.6778V13H10.5387V14.7348H10.5391V14.7354H12.0626V18.9274C9.19378 18.4769 7 15.9945 7 13C7 9.68654 9.68654 7 13 7Z" fill="white"/>
</g>
<defs>
<clipPath id="clip0_158_5614">
<rect width="12" height="12" fill="white" transform="translate(7 7)"/>
</clipPath>
</defs>
</svg>
