<svg width="56" height="36" viewBox="0 0 56 36" fill="none" xmlns="http://www.w3.org/2000/svg">
<path opacity="0.5" d="M5.16609 9H1.44234V1.125H2.84859V7.75125H5.16609V9ZM7.87154 9H6.46529V1.125H7.87154V9ZM9.40945 7.00875V3.11625C9.40945 2.44125 9.5857 1.92375 9.9382 1.56375C10.2982 1.19625 10.812 1.0125 11.4795 1.0125C12.147 1.0125 12.657 1.19625 13.0095 1.56375C13.362 1.92375 13.5382 2.44125 13.5382 3.11625V3.81375H12.2107V3.04875C12.2107 2.50875 11.9782 2.23875 11.5132 2.23875C11.0482 2.23875 10.8157 2.50875 10.8157 3.04875V7.07625C10.8157 7.61625 11.0482 7.88625 11.5132 7.88625C11.9782 7.88625 12.2107 7.61625 12.2107 7.07625V6.075H13.5382V7.00875C13.5382 7.68375 13.362 8.205 13.0095 8.5725C12.657 8.9325 12.147 9.1125 11.4795 9.1125C10.812 9.1125 10.2982 8.9325 9.9382 8.5725C9.5857 8.205 9.40945 7.68375 9.40945 7.00875ZM18.7984 9H14.9621V1.125H18.7984V2.37375H16.3684V4.32H18.3034V5.56875H16.3684V7.75125H18.7984V9ZM21.4318 9H20.1718V1.125H21.9156L23.3218 5.76V1.125H24.5818V9H23.1643L21.4318 3.31875V9ZM28.0613 9.1125C27.3938 9.1125 26.88 8.9325 26.52 8.5725C26.1675 8.205 25.9913 7.695 25.9913 7.0425V6.6375H27.3188V7.0875C27.3188 7.62 27.5625 7.88625 28.05 7.88625C28.5375 7.88625 28.7813 7.61625 28.7813 7.07625C28.7813 6.74625 28.6988 6.4875 28.5338 6.3C28.3763 6.0975 28.0575 5.835 27.5775 5.5125C27 5.1375 26.595 4.76625 26.3625 4.39875C26.13 4.02375 26.0138 3.5775 26.0138 3.06C26.0138 2.415 26.1938 1.9125 26.5538 1.5525C26.9213 1.1925 27.435 1.0125 28.095 1.0125C28.755 1.0125 29.2575 1.1925 29.6025 1.5525C29.955 1.9125 30.1313 2.4225 30.1313 3.0825V3.36375H28.8038V3.04875C28.8038 2.50875 28.5713 2.23875 28.1063 2.23875C27.6413 2.23875 27.4088 2.4975 27.4088 3.015C27.4088 3.3075 27.4913 3.5475 27.6563 3.735C27.8363 3.9375 28.1625 4.1925 28.635 4.5C29.2275 4.8825 29.6325 5.26125 29.85 5.63625C30.075 6.00375 30.1875 6.46125 30.1875 7.00875C30.1875 7.66875 30 8.18625 29.625 8.56125C29.2575 8.92875 28.7363 9.1125 28.0613 9.1125ZM35.4163 9H31.58V1.125H35.4163V2.37375H32.9863V4.32H34.9213V5.56875H32.9863V7.75125H35.4163V9ZM38.9385 9H36.7898V1.125H38.9385C39.6285 1.125 40.1498 1.305 40.5023 1.665C40.8548 2.0175 41.031 2.53125 41.031 3.20625V6.9075C41.031 7.59 40.8548 8.11125 40.5023 8.47125C40.1498 8.82375 39.6285 9 38.9385 9ZM38.196 2.37375V7.75125H38.916C39.1635 7.75125 39.3435 7.69125 39.456 7.57125C39.5685 7.44375 39.6248 7.2375 39.6248 6.9525V3.1725C39.6248 2.8875 39.5685 2.685 39.456 2.565C39.3435 2.4375 39.1635 2.37375 38.916 2.37375H38.196ZM47.2726 9H45.0339V1.125H47.1601C47.8726 1.125 48.3976 1.27875 48.7351 1.58625C49.0726 1.89375 49.2414 2.37 49.2414 3.015V3.24C49.2414 4.035 48.9376 4.5525 48.3301 4.7925V4.82625C49.0276 5.05125 49.3764 5.6325 49.3764 6.57V6.975C49.3764 8.325 48.6751 9 47.2726 9ZM46.4401 2.37375V4.2975H46.9914C47.5539 4.2975 47.8351 4.02 47.8351 3.465V3.1725C47.8351 2.895 47.7789 2.6925 47.6664 2.565C47.5539 2.4375 47.3701 2.37375 47.1151 2.37375H46.4401ZM46.4401 5.54625V7.75125H47.2726C47.5201 7.75125 47.6964 7.69125 47.8014 7.57125C47.9139 7.45125 47.9701 7.24875 47.9701 6.96375V6.51375C47.9701 6.15375 47.9026 5.9025 47.7676 5.76C47.6401 5.6175 47.4076 5.54625 47.0701 5.54625H46.4401ZM53.3064 9H51.9002V5.6925L50.2014 1.125H51.7089L52.6652 3.99375L53.6214 1.125H55.0052L53.3064 5.6925V9Z" fill="white"/>
<g clip-path="url(#clip0_203_1633)">
<path d="M16.4328 13.25H22.1401V31.1951H16.4328M0.902344 13.25H14.7865L13.3597 17.2012H6.60966V20.8232H12.0426L10.6158 24.7744H6.60966V31.25H0.902344M25.9267 13.25H39.8109L38.3841 17.2012H31.6341V20.8232H37.067L35.6401 24.7744H31.6341V31.25H25.9267M43.4328 13.25L36.9023 31.25H42.445L43.1584 28.8902H49.5243L50.2377 31.25H55.7804L49.2499 13.25M46.3414 18.0244L48.4816 25.3232H44.2011" fill="white"/>
</g>
<defs>
<clipPath id="clip0_203_1633">
<rect width="54.878" height="18" fill="white" transform="translate(0.902344 13.25)"/>
</clipPath>
</defs>
</svg>
