<svg width="26" height="26" viewBox="0 0 26 26" fill="none" xmlns="http://www.w3.org/2000/svg">
<path class='opacity' d="M13 0.625C19.8345 0.625 25.375 6.16548 25.375 13C25.375 19.8345 19.8345 25.375 13 25.375C6.16548 25.375 0.625 19.8345 0.625 13C0.625 6.16548 6.16548 0.625 13 0.625Z" fill="white" fill-opacity="0.1"/>
<path class='stroke' d="M13 0.625C19.8345 0.625 25.375 6.16548 25.375 13C25.375 19.8345 19.8345 25.375 13 25.375C6.16548 25.375 0.625 19.8345 0.625 13C0.625 6.16548 6.16548 0.625 13 0.625Z" stroke="white" stroke-width="0.75"/>
<g clip-path="url(#clip0_158_5582)">
<path d="M15.3523 7.75H10.6475C9.04984 7.75 7.75 9.0499 7.75 10.6476V15.3523C7.75 16.9501 9.04984 18.2499 10.6475 18.2499H15.3523C16.9501 18.2499 18.2499 16.95 18.2499 15.3523V10.6476C18.25 9.0499 16.9501 7.75 15.3523 7.75ZM17.3184 15.3523C17.3184 16.4364 16.4364 17.3183 15.3523 17.3183H10.6475C9.56353 17.3184 8.68161 16.4364 8.68161 15.3523V10.6476C8.68161 9.56359 9.56353 8.68161 10.6475 8.68161H15.3523C16.4364 8.68161 17.3183 9.56359 17.3183 10.6476V15.3523H17.3184Z" fill="white"/>
<path d="M13.0005 10.2949C11.5086 10.2949 10.2949 11.5086 10.2949 13.0005C10.2949 14.4923 11.5086 15.7059 13.0005 15.7059C14.4924 15.7059 15.7061 14.4923 15.7061 13.0005C15.7061 11.5086 14.4924 10.2949 13.0005 10.2949ZM13.0005 14.7743C12.0224 14.7743 11.2265 13.9786 11.2265 13.0004C11.2265 12.0222 12.0223 11.2265 13.0005 11.2265C13.9787 11.2265 14.7745 12.0222 14.7745 13.0004C14.7745 13.9786 13.9786 14.7743 13.0005 14.7743Z" fill="white"/>
<path d="M15.8199 9.50391C15.6404 9.50391 15.4641 9.57657 15.3373 9.70389C15.2099 9.83059 15.1367 10.007 15.1367 10.1871C15.1367 10.3666 15.21 10.543 15.3373 10.6703C15.464 10.797 15.6404 10.8703 15.8199 10.8703C16 10.8703 16.1758 10.797 16.3031 10.6703C16.4304 10.543 16.5031 10.3666 16.5031 10.1871C16.5031 10.007 16.4304 9.83059 16.3031 9.70389C16.1764 9.57657 16 9.50391 15.8199 9.50391Z" fill="white"/>
</g>
<defs>
<clipPath id="clip0_158_5582">
<rect width="10.5" height="10.5" fill="white" transform="translate(7.75 7.75)"/>
</clipPath>
</defs>
</svg>
