<svg width="211" height="50" viewBox="0 0 211 50" fill="none" xmlns="http://www.w3.org/2000/svg">
<g clip-path="url(#clip0_203_1639)">
<g clip-path="url(#clip1_203_1639)">
<path d="M29.3496 15.9276L33.3851 12.6259L42.1994 21.2529L40.3941 25.5131C40.3941 25.5131 43.1198 24.4125 43.1198 21.7144C43.1198 21.7144 42.9074 20.7203 41.7747 19.6553L41.5623 15.8211L37.3144 10.4248L38.2348 14.117L33.1373 6.51953L29.3496 15.9276Z" fill="white"/>
<path d="M39.4948 22.7441C34.3442 26.4186 30.5742 24.608 30.5742 24.608C31.3707 28.3357 34.0787 27.7499 34.0787 27.7499C33.8132 28.2292 32.6274 28.5487 32.6274 28.5487L33.6539 29.7203C40.2912 25.8861 39.4948 22.7441 39.4948 22.7441Z" fill="white"/>
<path d="M31.1563 20.5076C30.0943 20.0283 28.873 20.0283 28.873 20.0283C28.9792 21.0401 29.3509 21.5194 29.3509 21.5194C30.2005 21.9454 32.3244 21.5194 32.3244 21.5194C32.3244 21.5194 32.2183 20.9869 31.1563 20.5076Z" fill="white"/>
<path d="M37.4905 20.0283C37.4905 20.0283 36.2692 20.0283 35.2072 20.5076C34.1453 20.9869 34.0391 21.5194 34.0391 21.5194C34.0391 21.5194 36.163 21.9454 37.0126 21.5194C37.0126 21.5194 37.3843 21.0401 37.4905 20.0283Z" fill="white"/>
<path d="M25.1007 18.2708C25.1538 15.6614 25.2069 15.2887 25.2069 15.2887L28.0742 11.7207L24.4635 14.8626C24.4635 14.8626 24.198 19.9513 23.5077 20.8684C22.8174 21.7855 23.1891 24.4482 26.0565 25.8328C26.0565 25.8328 23.9325 23.1228 24.0918 21.7086C24.2511 20.2944 25.0476 20.8802 25.1007 18.2708Z" fill="white"/>
<path d="M23.9869 28.122C23.9869 28.122 23.2966 25.7256 20.2169 25.1931C20.2169 25.1931 20.5355 24.6605 21.5974 24.4475C21.5974 24.4475 19.6328 24.1813 18.7832 25.5126C18.7832 25.5126 20.8009 25.3528 22.8718 27.696C22.8718 27.696 21.2788 28.122 20.8275 27.696C20.8275 27.696 20.854 29.4533 23.9869 28.122Z" fill="white"/>
<path d="M20.8009 34.7788C20.8009 34.7788 21.8628 32.9149 16.2344 32.7019L17.6681 31.2641L12.4644 30.6783L13.2609 29.7197C13.2609 29.7197 10.3405 30.625 10.9776 31.0511C11.6148 31.4771 15.8627 31.6901 15.8627 31.6901L13.7388 33.5007C13.7388 33.5007 20.0575 33.0214 20.8009 34.7788Z" fill="white"/>
<path d="M41.1895 26.7379V30.1994L45.9683 27.8563L43.1187 27.6965C43.1187 27.6965 45.9152 24.8741 47.6144 25.8326C47.6144 25.8326 46.5524 22.3179 41.1895 26.7379Z" fill="white"/>
<path d="M48.6272 28.6197C46.0254 29.5072 42.043 32.4894 42.043 32.4894V38.507C42.043 38.507 45.9723 33.584 47.8838 33.4894C49.7953 33.3947 52.6096 33.4894 52.6096 33.4894L50.0077 31.5841L55.6893 31.1048C55.6893 31.1048 51.229 27.7351 48.6272 28.6197Z" fill="white"/>
<path d="M33.4931 35.0983C35.3516 35.471 39.8355 30.1102 38.5375 28.6191C38.5375 28.6191 34.9799 32.8616 33.5462 32.9149C32.1126 32.9681 29.9355 30.767 29.9355 30.767C29.9355 30.767 31.6347 34.7255 33.4931 35.0983Z" fill="white"/>
<path d="M34.3533 43.939C41.5835 41.0101 40.7163 33.4896 40.7163 33.4896C40.026 35.1286 38.1675 36.5901 38.1675 36.5901C39.1764 35.3653 39.8667 30.9453 39.8667 30.9453C39.8667 30.9453 36.5746 36.0044 33.548 36.1109C30.5214 36.2174 27.123 31.5843 27.123 31.5843C28.2912 36.2706 32.8577 38.0812 32.8577 38.0812C34.9285 37.6552 37.495 35.5251 37.495 35.5251C36.7663 37.9836 32.6276 40.3711 32.6276 40.3711C31.2293 40.2113 27.8664 37.7084 27.8664 37.7084C27.9195 38.4007 31.3709 42.9272 33.017 42.874C34.663 42.8207 37.1587 39.7853 37.1587 39.7853C36.8401 42.235 34.3533 43.939 34.3533 43.939Z" fill="white"/>
<path d="M28.0283 44.1072C25.5356 43.0806 21.4913 38.5216 19.4057 35.7228L19.1343 35.356L18.7066 35.2021C18.5473 35.1459 18.2228 35.0276 16.4971 35.0276C15.1283 35.0276 12.8746 35.1016 9.11932 35.3353L10.3229 33.6046H6.58535C7.28448 32.8324 8.11931 31.865 9.09573 30.6756C11.9217 27.2231 15.7743 27.0278 15.9277 27.0189L17.149 26.9805L17.3614 25.7734C17.6682 24.0456 20.4765 23.4273 20.4972 23.4244L21.7155 23.1877V20.5132C22.8128 18.6878 22.922 15.1908 22.8984 13.4069L31.931 4.59941L32.9517 3.5166H30.8809L21.3762 12.7826C21.3762 12.7826 21.5886 18.5872 20.2081 20.025V21.9421C20.2081 21.9421 16.3732 22.6877 15.8746 25.5101C15.8746 25.5101 11.2521 25.6521 7.92461 29.7171C4.59711 33.7821 2.96875 35.1134 2.96875 35.1134H7.42902L6.08386 37.0483C6.08386 37.0483 17.1991 36.2672 18.1903 36.6222C18.1903 36.6222 24.2082 44.7167 28.0666 45.7107H30.757L29.2968 44.7877C28.8867 44.5303 28.4649 44.2877 28.0194 44.1043L28.0283 44.1072Z" fill="white"/>
<path d="M63.856 35.1163C63.856 35.1163 62.2276 33.785 58.9001 29.72C55.5726 25.655 50.9501 25.513 50.9501 25.513C50.4516 22.6906 46.6167 21.9451 46.6167 21.9451V20.028C45.2361 18.5901 45.4485 12.7856 45.4485 12.7856L35.9439 3.51953H33.873L34.8937 4.60234L43.9264 13.4098C43.9028 15.1967 44.0119 18.6937 45.1093 20.5161V23.1906L46.3276 23.4273C46.3512 23.4332 49.1595 24.0486 49.4634 25.7763L49.6758 26.9834L50.897 27.0219C51.0504 27.0278 54.903 27.226 57.729 30.6786C58.7054 31.8708 59.5403 32.8353 60.2394 33.6075H56.5019L57.7054 35.3382C53.9502 35.1045 51.6994 35.0305 50.3277 35.0305C48.602 35.0305 48.2804 35.1459 48.1182 35.2051L47.6905 35.3589L47.4191 35.7258C45.3364 38.5245 41.2891 43.0865 38.7965 44.1102C38.3481 44.2936 37.9292 44.5362 37.5191 44.7936L36.0589 45.7166H38.7493C42.6077 44.7226 48.6256 36.6281 48.6256 36.6281C49.6168 36.2731 60.732 37.0541 60.732 37.0541L59.3869 35.1193H63.8472L63.856 35.1163Z" fill="white"/>
<path d="M84.9644 7.98547C83.9213 7.73019 82.6269 7.60254 81.081 7.60254H74.0312V24.3426H77.0237V18.4305H81.2858C83.5799 18.4305 85.3307 17.9915 86.5413 17.1167C87.752 16.2419 88.3573 14.1778 88.3573 12.4873C88.3573 11.4381 88.0531 10.4885 87.4415 9.63862C86.83 8.7887 86.0043 8.23765 84.9613 7.98236L84.9644 7.98547ZM84.9985 14.075C84.3187 15.5102 82.6424 15.367 81.3107 15.367H77.0237V10.8092H79.4761C80.634 10.8092 81.9253 10.6286 83.0553 10.8435C83.6295 10.9524 84.1945 11.1953 84.5981 11.6187C85.2096 12.2538 85.3741 13.278 84.9985 14.075Z" fill="white"/>
<path d="M103.62 14.1342H94.6803V7.60254H91.4395V24.3426H94.6803V17.3844H103.62V24.3426H107.01V7.60254H103.62V14.1342Z" fill="white"/>
<path d="M108.426 24.3426H112.784L121.128 15.971V24.3426H124.798V7.60254L108.426 23.7355V24.3426Z" fill="white"/>
<path d="M180.844 24.3426H184.513V15.971L192.857 24.3426H197.215V23.7355L180.844 7.60254V24.3426Z" fill="white"/>
<path d="M138.821 19.0563L127.199 7.60254V24.3426H130.868V15.971L138.821 23.9503L139.213 24.3426H142.323V22.5058V7.60254H138.821V19.0563Z" fill="white"/>
<path d="M150.613 7.60254H145.1V11.1143H150.613V24.3426H154.114V11.1143H159.702V7.60254H154.114H150.613Z" fill="white"/>
<path d="M190.844 7.60254V12.2164L202.857 24.3426H207.215V23.7355L190.844 7.60254Z" fill="white"/>
<path d="M169.487 7.20508C164.592 7.20508 160.609 11.1994 160.609 16.109C160.609 21.0187 164.592 25.013 169.487 25.013C174.383 25.013 178.366 21.0187 178.366 16.109C178.366 11.1994 174.383 7.20508 169.487 7.20508ZM169.487 21.4825C166.529 21.4825 164.13 19.076 164.13 16.109C164.13 13.1421 166.529 10.7355 169.487 10.7355C172.446 10.7355 174.845 13.1421 174.845 16.109C174.845 19.076 172.446 21.4825 169.487 21.4825Z" fill="white"/>
<path opacity="0.5" d="M76.931 40.0273H75.1047V30.2686H81.8661V31.8161H76.931V34.3812H81.6012V35.9287H76.931V40.0273ZM87.5114 40.2783C86.5913 40.2783 85.7687 40.0785 85.0438 39.6788C84.3282 39.2699 83.7612 38.6797 83.343 37.9083C82.9341 37.1369 82.7296 36.2168 82.7296 35.148C82.7296 34.1256 82.9341 33.2288 83.343 32.4574C83.7612 31.6767 84.3328 31.0772 85.0577 30.659C85.7827 30.2314 86.6006 30.0177 87.5114 30.0177C88.4222 30.0177 89.2401 30.2314 89.965 30.659C90.6992 31.0865 91.2755 31.6906 91.6937 32.4713C92.1212 33.2427 92.335 34.1349 92.335 35.148C92.335 36.2075 92.1259 37.1276 91.7076 37.9083C91.2894 38.6797 90.7132 39.2699 89.9789 39.6788C89.254 40.0785 88.4315 40.2783 87.5114 40.2783ZM87.5114 38.7308C88.0876 38.7308 88.5988 38.5914 89.0449 38.3126C89.491 38.0338 89.8349 37.6248 90.0765 37.0858C90.3275 36.5467 90.4529 35.9008 90.4529 35.148C90.4529 34.4323 90.3275 33.805 90.0765 33.2659C89.8349 32.7176 89.491 32.2994 89.0449 32.0112C88.5988 31.7138 88.0876 31.5651 87.5114 31.5651C86.9351 31.5651 86.4286 31.7092 85.9918 31.9973C85.555 32.2854 85.2157 32.7036 84.9741 33.252C84.7325 33.791 84.6116 34.423 84.6116 35.148C84.6116 35.8915 84.7325 36.5328 84.9741 37.0718C85.2157 37.6109 85.555 38.0245 85.9918 38.3126C86.4286 38.5914 86.9351 38.7308 87.5114 38.7308ZM98.1714 40.2783C97.2513 40.2783 96.4287 40.0785 95.7038 39.6788C94.9882 39.2699 94.4212 38.6797 94.003 37.9083C93.5941 37.1369 93.3896 36.2168 93.3896 35.148C93.3896 34.1256 93.5941 33.2288 94.003 32.4574C94.4212 31.6767 94.9928 31.0772 95.7178 30.659C96.4427 30.2314 97.2606 30.0177 98.1714 30.0177C99.0822 30.0177 99.9001 30.2314 100.625 30.659C101.359 31.0865 101.935 31.6906 102.354 32.4713C102.781 33.2427 102.995 34.1349 102.995 35.148C102.995 36.2075 102.786 37.1276 102.368 37.9083C101.949 38.6797 101.373 39.2699 100.639 39.6788C99.914 40.0785 99.0915 40.2783 98.1714 40.2783ZM98.1714 38.7308C98.7476 38.7308 99.2588 38.5914 99.7049 38.3126C100.151 38.0338 100.495 37.6248 100.737 37.0858C100.987 36.5467 101.113 35.9008 101.113 35.148C101.113 34.4323 100.987 33.805 100.737 33.2659C100.495 32.7176 100.151 32.2994 99.7049 32.0112C99.2588 31.7138 98.7476 31.5651 98.1714 31.5651C97.5951 31.5651 97.0886 31.7092 96.6518 31.9973C96.215 32.2854 95.8758 32.7036 95.6341 33.252C95.3925 33.791 95.2716 34.423 95.2716 35.148C95.2716 35.8915 95.3925 36.5328 95.6341 37.0718C95.8758 37.6109 96.215 38.0245 96.6518 38.3126C97.0886 38.5914 97.5951 38.7308 98.1714 38.7308ZM108.311 40.0273H106.485V31.8161H103.223V30.2686H111.559V31.8161H108.311V40.0273ZM112.748 40.0273V30.2686H116.875C117.879 30.2686 118.683 30.4684 119.287 30.8681C119.9 31.2677 120.207 31.8904 120.207 32.7362C120.207 33.3031 120.03 33.7632 119.677 34.1163C119.324 34.4695 118.868 34.7205 118.311 34.8692C118.98 35.0086 119.51 35.2827 119.9 35.6917C120.3 36.0913 120.499 36.6025 120.499 37.2252C120.499 38.1918 120.137 38.9028 119.412 39.3582C118.687 39.8043 117.776 40.0273 116.68 40.0273H112.748ZM116.652 34.2C117.767 34.2 118.325 33.7864 118.325 32.9592C118.325 32.1971 117.767 31.8161 116.652 31.8161H114.547V34.2H116.652ZM116.749 38.4799C117.995 38.4799 118.617 38.0152 118.617 37.0858C118.617 36.6025 118.464 36.254 118.157 36.0402C117.86 35.8171 117.391 35.7056 116.749 35.7056H114.547V38.4799H116.749ZM130.943 40.0273H128.894L127.918 37.3646H123.764L122.774 40.0273H120.822L124.837 30.2686H126.928L130.943 40.0273ZM124.335 35.8171H127.346L126.231 32.778C126.073 32.3598 125.948 31.9834 125.855 31.6488C125.752 31.9648 125.618 32.3412 125.45 32.778L124.335 35.8171ZM138.678 40.0273H131.944V30.2686H133.771V38.4799H138.678V40.0273ZM146.588 40.0273H139.854V30.2686H141.681V38.4799H146.588V40.0273ZM158.812 40.0273H156.762L155.786 37.3646H151.632L150.642 40.0273H148.69L152.705 30.2686H154.797L158.812 40.0273ZM152.204 35.8171H155.215L154.1 32.778C153.942 32.3598 153.816 31.9834 153.723 31.6488C153.621 31.9648 153.486 32.3412 153.319 32.778L152.204 35.8171ZM163.611 40.2783C162.7 40.2783 161.896 40.0692 161.199 39.6509C160.502 39.2234 159.963 38.6239 159.582 37.8525C159.201 37.0811 159.011 36.1796 159.011 35.148C159.011 34.1535 159.215 33.2706 159.624 32.4992C160.033 31.7185 160.609 31.1097 161.353 30.6729C162.096 30.2361 162.951 30.0177 163.918 30.0177C164.717 30.0177 165.419 30.1571 166.023 30.4359C166.636 30.7147 167.12 31.1051 167.473 31.6069C167.835 32.0995 168.049 32.6618 168.114 33.2938H166.232C166.167 32.7919 165.925 32.3784 165.507 32.0531C165.098 31.7278 164.578 31.5651 163.946 31.5651C163.351 31.5651 162.821 31.7092 162.356 31.9973C161.892 32.2854 161.529 32.7036 161.269 33.252C161.018 33.791 160.893 34.423 160.893 35.148C160.893 35.8729 161.018 36.5096 161.269 37.0579C161.52 37.597 161.873 38.0105 162.329 38.2987C162.784 38.5868 163.309 38.7308 163.904 38.7308C164.387 38.7308 164.824 38.6379 165.214 38.452C165.605 38.2568 165.911 37.9873 166.134 37.6434C166.367 37.2995 166.483 36.8999 166.483 36.4445V36.3748H163.834V34.8273H168.156V40.0273H166.483V39.7206C166.483 39.3675 166.515 39.0422 166.581 38.7448C166.339 39.2095 165.962 39.5812 165.451 39.8601C164.949 40.1389 164.336 40.2783 163.611 40.2783ZM176.954 40.0273H169.956V30.2686H176.745V31.8161H171.782V34.2H176.536V35.7614H171.782V38.4799H176.954V40.0273ZM178.614 40.0273V30.2686H181.361L185.571 37.6155C185.534 37.2438 185.515 36.7558 185.515 36.1517V30.2686H187.341V40.0273H184.944L180.385 32.067C180.422 32.4388 180.441 32.8942 180.441 33.4332V40.0273H178.614ZM193.689 40.2783C192.722 40.2783 191.881 40.0738 191.165 39.6649C190.45 39.2559 189.897 38.6611 189.506 37.8804C189.125 37.0997 188.935 36.1657 188.935 35.0783C188.935 34.0559 189.144 33.1637 189.562 32.4016C189.98 31.6302 190.557 31.04 191.291 30.6311C192.034 30.2221 192.866 30.0177 193.786 30.0177C194.576 30.0177 195.283 30.1664 195.905 30.4638C196.537 30.7519 197.044 31.1748 197.425 31.7324C197.815 32.2808 198.052 32.936 198.136 33.6981H196.24C196.147 33.0475 195.887 32.5317 195.459 32.1507C195.041 31.7603 194.483 31.5651 193.786 31.5651C193.21 31.5651 192.694 31.7092 192.239 31.9973C191.793 32.2761 191.444 32.6804 191.193 33.2102C190.942 33.7399 190.817 34.3626 190.817 35.0783C190.817 35.8218 190.942 36.4724 191.193 37.03C191.444 37.5784 191.788 38.0012 192.225 38.2987C192.671 38.5868 193.178 38.7308 193.744 38.7308C194.451 38.7308 195.036 38.5264 195.501 38.1174C195.966 37.6992 196.249 37.1601 196.351 36.5003H198.178C198.094 37.2531 197.862 37.9176 197.481 38.4938C197.109 39.0608 196.598 39.5022 195.947 39.8182C195.297 40.1249 194.544 40.2783 193.689 40.2783ZM201.942 40.0273V36.0681L198.261 30.2686H200.45L202.402 33.6145C202.606 33.949 202.774 34.2557 202.904 34.5346C202.987 34.358 203.15 34.0513 203.392 33.6145L205.371 30.2686H207.477L203.782 36.0681V40.0273H201.942Z" fill="white"/>
</g>
</g>
<defs>
<clipPath id="clip0_203_1639">
<rect width="211" height="49.2333" fill="white"/>
</clipPath>
<clipPath id="clip1_203_1639">
<rect width="205.063" height="42.2" fill="white" transform="translate(2.96875 3.5166)"/>
</clipPath>
</defs>
</svg>
