<svg width="32" height="32" viewBox="0 0 34 34" fill="none" xmlns="http://www.w3.org/2000/svg">
<path class='opacity' d="M17 0.5C26.1127 0.5 33.5 7.8873 33.5 17C33.5 26.1127 26.1127 33.5 17 33.5C7.8873 33.5 0.5 26.1127 0.5 17C0.5 7.8873 7.8873 0.5 17 0.5Z" fill="white" fill-opacity="0"/>
<path class='stroke' d="M17 0.5C26.1127 0.5 33.5 7.8873 33.5 17C33.5 26.1127 26.1127 33.5 17 33.5C7.8873 33.5 0.5 26.1127 0.5 17C0.5 7.8873 7.8873 0.5 17 0.5Z" stroke="white"/>
<path d="M10.332 13L14.9407 15.6113C16.6398 16.574 17.3576 16.574 19.0567 15.6113L23.6654 13" stroke="#FFFFFF80" stroke-width="1.2" stroke-linejoin="round"/>
<path d="M10.3425 17.9844C10.3861 20.0281 10.4079 21.0499 11.162 21.8069C11.9161 22.5639 12.9656 22.5902 15.0646 22.6429C16.3582 22.6755 17.6392 22.6755 18.9328 22.6429C21.0318 22.5902 22.0813 22.5639 22.8354 21.8069C23.5895 21.0499 23.6113 20.0281 23.6548 17.9844C23.6689 17.3273 23.6689 16.6741 23.6548 16.0169C23.6113 13.9732 23.5895 12.9514 22.8354 12.1944C22.0813 11.4375 21.0318 11.4111 18.9328 11.3584C17.6392 11.3259 16.3582 11.3259 15.0646 11.3584C12.9656 11.4111 11.9161 11.4375 11.162 12.1944C10.4079 12.9514 10.3861 13.9732 10.3425 16.0169C10.3285 16.6741 10.3285 17.3273 10.3425 17.9844Z" stroke="white" stroke-width="1.2" stroke-linejoin="round"/>
</svg>
