<svg width="26" height="26" viewBox="0 0 26 26" fill="none" xmlns="http://www.w3.org/2000/svg">
<path class='opacity' d="M13 0.625C19.8345 0.625 25.375 6.16548 25.375 13C25.375 19.8345 19.8345 25.375 13 25.375C6.16548 25.375 0.625 19.8345 0.625 13C0.625 6.16548 6.16548 0.625 13 0.625Z" fill="white" fill-opacity="0"/>
<path class='stroke' d="M13 0.625C19.8345 0.625 25.375 6.16548 25.375 13C25.375 19.8345 19.8345 25.375 13 25.375C6.16548 25.375 0.625 19.8345 0.625 13C0.625 6.16548 6.16548 0.625 13 0.625Z" stroke="#FFFFFF80" stroke-width="0.75"/>
<path d="M16.6597 9.78109C16.5838 9.74185 16.5099 9.69883 16.4382 9.65219C16.2299 9.51448 16.0389 9.35222 15.8694 9.16891C15.4452 8.68352 15.2867 8.19109 15.2284 7.84633H15.2307C15.182 7.56016 15.2021 7.375 15.2052 7.375H13.273V14.8464C13.273 14.9467 13.273 15.0459 13.2688 15.1438C13.2688 15.156 13.2676 15.1673 13.2669 15.1804C13.2669 15.1858 13.2669 15.1914 13.2657 15.197C13.2657 15.1984 13.2657 15.1998 13.2657 15.2013C13.2454 15.4693 13.1594 15.7283 13.0155 15.9553C12.8715 16.1824 12.674 16.3706 12.4403 16.5034C12.1966 16.642 11.9211 16.7147 11.6408 16.7144C10.7406 16.7144 10.011 15.9803 10.011 15.0738C10.011 14.1672 10.7406 13.4331 11.6408 13.4331C11.8112 13.433 11.9806 13.4598 12.1426 13.5126L12.1449 11.5452C11.6531 11.4817 11.1534 11.5208 10.6774 11.66C10.2014 11.7993 9.7594 12.0357 9.37932 12.3543C9.04629 12.6437 8.76631 12.9889 8.55198 13.3745C8.47042 13.5152 8.16268 14.0802 8.12542 14.9973C8.10198 15.5179 8.25831 16.0572 8.33284 16.2801V16.2848C8.37971 16.416 8.56135 16.8639 8.85737 17.2415C9.09607 17.5444 9.37808 17.8104 9.69432 18.0311V18.0264L9.69901 18.0311C10.6344 18.6667 11.6715 18.625 11.6715 18.625C11.851 18.6177 12.4524 18.625 13.1354 18.3013C13.8929 17.9425 14.3242 17.4079 14.3242 17.4079C14.5997 17.0885 14.8187 16.7244 14.972 16.3314C15.1468 15.8718 15.2052 15.3205 15.2052 15.1002V11.1365C15.2286 11.1505 15.5408 11.357 15.5408 11.357C15.5408 11.357 15.9906 11.6453 16.6923 11.833C17.1957 11.9666 17.874 11.9948 17.874 11.9948V10.0766C17.6364 10.1024 17.1538 10.0274 16.6597 9.78109Z" fill="white"/>
</svg>
