<svg width="26" height="26" viewBox="0 0 26 26" fill="none" xmlns="http://www.w3.org/2000/svg">
<path class='opacity' d="M13 0.625C19.8345 0.625 25.375 6.16548 25.375 13C25.375 19.8345 19.8345 25.375 13 25.375C6.16548 25.375 0.625 19.8345 0.625 13C0.625 6.16548 6.16548 0.625 13 0.625Z" fill="white" fill-opacity="0.1"/>
<path d="M13 0.625C19.8345 0.625 25.375 6.16548 25.375 13C25.375 19.8345 19.8345 25.375 13 25.375C6.16548 25.375 0.625 19.8345 0.625 13C0.625 6.16548 6.16548 0.625 13 0.625Z" stroke="white" stroke-width="0.75"/>
<path d="M20.8286 10.7669C19.6019 10.0002 17.8886 10.9069 17.2486 10.9069C16.6086 10.9069 16.4019 10.5535 15.4686 10.4935C13.5753 10.3802 12.9953 10.8269 12.5819 10.8269C12.1686 10.8269 12.3286 10.6002 11.9953 10.6469C11.6286 10.7069 11.5686 10.7802 11.4686 10.9202C11.3419 11.0935 10.0019 14.7269 9.91526 14.9269C9.6086 15.6469 11.4419 15.7402 11.8553 15.1669C12.9486 13.6602 12.7019 12.0335 14.0753 11.7669C14.4019 11.7069 14.6886 11.6935 14.9086 12.0135V12.0335C15.1153 12.4002 14.7686 13.1269 14.5353 13.6935C14.4219 13.9669 14.0819 14.8669 14.1086 15.1735C14.1619 15.7535 15.9419 15.5602 16.1886 15.1135C16.7153 14.1335 16.8219 12.4535 17.4019 12.0002C18.1086 11.4535 18.7553 11.8735 18.8086 12.1202C18.9219 12.6202 18.4353 13.5669 18.1753 14.1202C17.8086 14.9002 17.9753 15.5202 18.9153 15.5269C19.2286 15.5269 19.6553 15.4069 19.8419 15.1402C19.9953 14.9135 20.2419 14.2735 20.5953 13.3135C20.9819 12.2735 21.4019 11.1202 20.8286 10.7669Z" fill="white"/>
<path d="M8.25435 14.2873C8.04769 14.2006 7.84769 14.1006 7.86769 13.8206C7.86769 13.7273 8.01435 13.314 8.16769 12.894C8.32102 12.474 8.48769 12.054 8.54769 11.954C8.72102 11.6673 9.12102 11.534 9.47435 11.394C9.82769 11.254 10.1477 11.1206 10.1477 10.834C10.1477 10.5473 9.92102 10.5206 9.70769 10.434C9.49435 10.3473 9.28769 10.2606 9.33435 10.0406C9.41435 9.64065 9.45435 9.37398 9.35435 9.20731C9.25435 9.04065 9.02102 8.98065 8.56102 8.99398C7.82769 9.02065 7.56769 9.21398 7.40769 9.46065C7.24769 9.71398 7.18769 10.014 6.84769 10.2606C6.64102 10.4073 6.40769 10.474 6.21435 10.5673C6.02102 10.6606 5.80769 10.8073 5.80769 11.014C5.80769 11.2206 5.94769 11.314 6.08102 11.394C6.22102 11.474 6.36102 11.5406 6.37435 11.694C6.37435 12.1473 6.16102 12.674 5.93435 13.194C5.70769 13.714 5.47435 14.2206 5.46769 14.6406C5.42769 15.654 6.74769 15.514 7.06102 15.5206C7.50769 15.514 8.64769 15.5873 8.66769 14.7006C8.66769 14.4606 8.46102 14.374 8.25435 14.2873Z" fill="white"/>
</svg>
