<svg width="32" height="32" viewBox="0 0 32 32" fill="none" xmlns="http://www.w3.org/2000/svg">
<path d="M15.7803 16.2223C17.187 17.6288 19.0397 19.0583 19.0397 19.0583L21.5793 16.5185C21.5793 16.5185 20.1499 14.6659 18.7434 13.2593C17.3367 11.8527 15.4841 10.4233 15.4841 10.4233L12.9444 12.963C12.9444 12.963 14.3738 14.8156 15.7803 16.2223ZM15.7803 16.2223L11.3359 20.6667M22.0026 16.0952L18.6163 19.4815M15.9074 10L12.5211 13.3863" stroke="white" stroke-linecap="round" stroke-linejoin="round"/>
<path d="M28 14.9104V11.0397C28 8.85307 28 7.75972 27.4612 7.0464C26.9224 6.33307 25.7041 5.98676 23.2676 5.29415C21.6029 4.82095 20.1355 4.25086 18.9631 3.7304C17.3645 3.02082 16.5653 2.66602 16 2.66602C15.4347 2.66602 14.6355 3.02082 13.0369 3.7304C11.8645 4.25086 10.3971 4.82094 8.73244 5.29415C6.29591 5.98676 5.07763 6.33307 4.53881 7.0464C4 7.75972 4 8.85307 4 11.0397V14.9104C4 22.4107 10.7504 26.9107 14.1253 28.6919C14.9348 29.1191 15.3395 29.3327 16 29.3327C16.6605 29.3327 17.0652 29.1191 17.8747 28.6919C21.2496 26.9107 28 22.4107 28 14.9104Z" stroke="white" stroke-linecap="round" stroke-linejoin="round"/>
</svg>
