<svg width="28" height="28" viewBox="0 0 28 28" fill="none" xmlns="http://www.w3.org/2000/svg">
<path d="M21.5 12.334L24.2368 9.82394C24.7455 9.35727 25 9.12394 25 8.83398M25 8.83398C25 8.54403 24.7455 8.3107 24.2368 7.84403L21.5 5.33398M25 8.83398C4 8.83398 4 24.0007 4 24.0007" stroke="white" stroke-linecap="round" stroke-linejoin="round"/>
<path d="M6.91667 8.83333C8.5275 8.83333 9.83333 7.5275 9.83333 5.91667C9.83333 4.30584 8.5275 3 6.91667 3C5.30584 3 4 4.30584 4 5.91667C4 7.5275 5.30584 8.83333 6.91667 8.83333Z" stroke="white" stroke-linecap="round" stroke-linejoin="round"/>
<path d="M15.6641 23.9993L21.4974 18.166M21.4974 23.9993L15.6641 18.166" stroke="white" stroke-linecap="round" stroke-linejoin="round"/>
</svg>
