<svg width="28" height="28" viewBox="0 0 28 28" fill="none" xmlns="http://www.w3.org/2000/svg">
<path d="M15.974 9.33398L10.3593 15.2919C9.90169 15.7775 9.6729 16.0203 9.49113 15.9482C9.30937 15.8762 9.32425 15.5486 9.354 14.8935L9.44791 12.8261M12.0312 18.6673L17.6459 12.7094C18.1036 12.2238 18.3323 11.981 18.5141 12.0531C18.6959 12.1251 18.6809 12.4527 18.6512 13.1078L18.5573 15.1753" stroke="white" stroke-linecap="round" stroke-linejoin="round"/>
<path d="M14.0026 25.6673C20.4459 25.6673 25.6693 20.444 25.6693 14.0007C25.6693 7.55733 20.4459 2.33398 14.0026 2.33398C7.55928 2.33398 2.33594 7.55733 2.33594 14.0007C2.33594 20.444 7.55928 25.6673 14.0026 25.6673Z" stroke="white" stroke-linecap="round" stroke-linejoin="round"/>
</svg>
