<svg width="28" height="28" viewBox="0 0 28 28" fill="none" xmlns="http://www.w3.org/2000/svg">
<path d="M12.3511 2.33398C8.54635 2.33398 6.64397 2.33398 5.32285 3.2648C4.94433 3.53149 4.60828 3.84776 4.32492 4.20402C3.33594 5.44743 3.33594 7.2379 3.33594 10.8188V13.7886C3.33594 17.2456 3.33594 18.974 3.88303 20.3546C4.76255 22.574 6.6226 24.3246 8.98069 25.1524C10.4475 25.6673 12.284 25.6673 15.9572 25.6673C18.0561 25.6673 19.1055 25.6673 19.9437 25.3731C21.2912 24.9001 22.354 23.8997 22.8566 22.6315C23.1693 21.8426 23.1693 20.8549 23.1693 18.8794V18.084" stroke="white" stroke-linecap="round" stroke-linejoin="round"/>
<path d="M18.5 8.74935C18.5 8.74935 19.0833 8.74935 19.6667 9.91602C19.6667 9.91602 21.5196 6.99935 23.1667 6.41602" stroke="white" stroke-linecap="round" stroke-linejoin="round"/>
<path d="M26.6667 8.16732C26.6667 11.389 24.055 14.0007 20.8333 14.0007C17.6117 14.0007 15 11.389 15 8.16732C15 4.94566 17.6117 2.33398 20.8333 2.33398C24.055 2.33398 26.6667 4.94566 26.6667 8.16732Z" stroke="white" stroke-linecap="round" stroke-linejoin="round"/>
<path d="M3.33594 14C3.33594 16.1477 5.07705 17.8888 7.22482 17.8888C8.00158 17.8888 8.91732 17.7528 9.67254 17.9551C10.3435 18.1349 10.8677 18.6591 11.0475 19.33C11.2498 20.0853 11.1137 21.0011 11.1137 21.7778C11.1137 23.9255 12.8549 25.6667 15.0026 25.6667" stroke="white" stroke-linecap="round" stroke-linejoin="round"/>
</svg>
