<svg width="29" height="28" viewBox="0 0 29 28" fill="none" xmlns="http://www.w3.org/2000/svg">
<path d="M16.7083 3.5027C16.1599 3.5 15.5775 3.5 14.9583 3.5C9.7336 3.5 7.12124 3.5 5.49811 5.12311C3.875 6.74624 3.875 9.3586 3.875 14.5833C3.875 19.808 3.875 22.4204 5.49811 24.0436C7.12124 25.6667 9.7336 25.6667 14.9583 25.6667C20.183 25.6667 22.7954 25.6667 24.4186 24.0436C26.0417 22.4204 26.0417 19.808 26.0417 14.5833C26.0417 13.9642 26.0417 13.3818 26.039 12.8333" stroke="white" stroke-linecap="round" stroke-linejoin="round"/>
<path d="M23.1263 2.33203L23.4272 3.14523C23.8218 4.21155 24.019 4.74472 24.408 5.13365C24.797 5.5226 25.3301 5.71988 26.3965 6.11446L27.2096 6.41536L26.3965 6.71627C25.3301 7.11085 24.797 7.30814 24.408 7.69708C24.019 8.08601 23.8218 8.61917 23.4272 9.6855L23.1263 10.4987L22.8254 9.6855C22.4309 8.61917 22.2336 8.08601 21.8446 7.69708C21.4556 7.30814 20.9225 7.11085 19.8561 6.71627L19.043 6.41536L19.8561 6.11446C20.9225 5.71988 21.4556 5.5226 21.8446 5.13365C22.2336 4.74472 22.4309 4.21155 22.8254 3.14523L23.1263 2.33203Z" stroke="white" stroke-linecap="round" stroke-linejoin="round"/>
<path d="M9.71094 20.4167C12.4313 17.5674 17.4613 17.4333 20.2109 20.4167M17.8719 11.6667C17.8719 13.2775 16.5642 14.5833 14.951 14.5833C13.338 14.5833 12.0302 13.2775 12.0302 11.6667C12.0302 10.0558 13.338 8.75 14.951 8.75C16.5642 8.75 17.8719 10.0558 17.8719 11.6667Z" stroke="white" stroke-linecap="round" stroke-linejoin="round"/>
</svg>
