<svg width="29" height="28" viewBox="0 0 29 28" fill="none" xmlns="http://www.w3.org/2000/svg">
<path d="M2.66406 9.9979C2.66406 8.60236 3.22684 7.74711 4.39146 7.09898L9.18558 4.431C11.6977 3.03299 12.9537 2.33398 14.3307 2.33398C15.7077 2.33398 16.9638 3.03299 19.4758 4.431L24.27 7.09898C25.4346 7.74711 25.9974 8.60237 25.9974 9.9979C25.9974 10.3763 25.9974 10.5655 25.9561 10.7211C25.739 11.5383 24.9984 11.6673 24.2832 11.6673H4.37822C3.66304 11.6673 2.9225 11.5383 2.70539 10.7211C2.66406 10.5655 2.66406 10.3763 2.66406 9.9979Z" stroke="white" stroke-linecap="round" stroke-linejoin="round"/>
<path d="M5 11.666V21.5827M9.66667 11.666V21.5827" stroke="white" stroke-linecap="round" stroke-linejoin="round"/>
<path d="M13.1641 21.584H6.16406C4.23107 21.584 2.66406 23.1509 2.66406 25.084C2.66406 25.4061 2.92523 25.6673 3.2474 25.6673H13.1641" stroke="white" stroke-linecap="round" stroke-linejoin="round"/>
<path d="M25.4167 16.916L17.25 25.0827" stroke="white" stroke-linecap="round" stroke-linejoin="round"/>
<path d="M18.125 18.666C18.6082 18.666 19 18.2743 19 17.791C19 17.3078 18.6082 16.916 18.125 16.916C17.6418 16.916 17.25 17.3078 17.25 17.791C17.25 18.2743 17.6418 18.666 18.125 18.666Z" stroke="white" stroke-linecap="round" stroke-linejoin="round"/>
<path d="M24.5391 25.084C25.0223 25.084 25.4141 24.6922 25.4141 24.209C25.4141 23.7257 25.0223 23.334 24.5391 23.334C24.0558 23.334 23.6641 23.7257 23.6641 24.209C23.6641 24.6922 24.0558 25.084 24.5391 25.084Z" stroke="white" stroke-linecap="round" stroke-linejoin="round"/>
</svg>
