<svg width="28" height="28" viewBox="0 0 28 28" fill="none" xmlns="http://www.w3.org/2000/svg">
<path d="M10.5 25.6673C10.9198 25.6673 12.4726 24.9586 14.0576 23.5414M14.0576 23.5414C15.4091 22.3328 16.784 20.609 17.5 18.37C19.0555 13.5051 9.72222 18.37 12.8333 22.4241C13.2161 22.9228 13.6284 23.2874 14.0576 23.5414ZM14.0576 23.5414C15.9275 24.6475 18.1196 23.6536 19.6048 22.5107C20.0587 22.1614 20.2856 21.9868 20.4211 22.0412C20.5567 22.0955 20.6358 22.4081 20.7942 23.0332C21.3011 25.0337 22.7984 26.6484 24.5 24.0462" stroke="white" stroke-linecap="round" stroke-linejoin="round"/>
<path d="M23.3333 15.1673V9.20649C23.3333 7.20642 23.3333 6.20637 23.0207 5.40767C22.5182 4.12364 21.4552 3.11081 20.1077 2.63189C19.2696 2.33398 18.2202 2.33398 16.1212 2.33398C12.4481 2.33398 10.6116 2.33398 9.14475 2.85532C6.78666 3.69342 4.92661 5.46588 4.0471 7.71292C3.5 9.11067 3.5 10.8607 3.5 14.3609V17.3675C3.5 20.9932 3.5 22.8059 4.48898 24.0649C4.77234 24.4255 5.10839 24.7458 5.48692 25.0159C5.91519 25.3213 6.40454 25.5278 7 25.6673" stroke="white" stroke-linecap="round" stroke-linejoin="round"/>
<path d="M3.5 14.0007C3.5 11.8528 5.24111 10.1118 7.38889 10.1118C8.16564 10.1118 9.08138 10.2479 9.8366 10.0455C10.5076 9.8657 11.0317 9.34159 11.2115 8.67057C11.4139 7.91536 11.2778 6.99962 11.2778 6.22287C11.2778 4.07509 13.0189 2.33398 15.1667 2.33398" stroke="white" stroke-linecap="round" stroke-linejoin="round"/>
</svg>
