<svg width="28" height="28" viewBox="0 0 28 28" fill="none" xmlns="http://www.w3.org/2000/svg">
<path d="M2.33398 10.5007C2.33398 6.65085 2.33398 4.72594 3.52997 3.52997C4.72594 2.33398 6.65085 2.33398 10.5007 2.33398H12.834C16.6838 2.33398 18.6086 2.33398 19.8047 3.52997C21.0007 4.72594 21.0007 6.65085 21.0007 10.5007V12.834C21.0007 16.6838 21.0007 18.6086 19.8047 19.8047C18.6086 21.0007 16.6838 21.0007 12.834 21.0007H10.5007C6.65085 21.0007 4.72594 21.0007 3.52997 19.8047C2.33398 18.6086 2.33398 16.6838 2.33398 12.834V10.5007Z" stroke="white" stroke-linecap="round" stroke-linejoin="round"/>
<path d="M21.2774 8.16602C22.8347 8.26096 23.8264 8.52146 24.5413 9.23629C25.666 10.361 25.666 12.1712 25.666 15.7917V17.986C25.666 21.6064 25.666 23.4166 24.5413 24.5413C23.4166 25.666 21.6064 25.666 17.986 25.666H15.7917C12.1712 25.666 10.361 25.666 9.23629 24.5413C8.52146 23.8264 8.26096 22.8347 8.16602 21.2774" stroke="white" stroke-linecap="round" stroke-linejoin="round"/>
<path d="M12.8327 14V7C13.0919 7.46667 13.2993 9.42667 15.166 9.8M12.8327 14C12.8327 15.2887 11.788 16.3333 10.4993 16.3333C9.21068 16.3333 8.16602 15.2887 8.16602 14C8.16602 12.7113 9.21068 11.6667 10.4993 11.6667C11.788 11.6667 12.8327 12.7113 12.8327 14Z" stroke="white" stroke-linecap="round" stroke-linejoin="round"/>
</svg>
