<svg width="277" height="63" viewBox="0 0 277 63" fill="none" xmlns="http://www.w3.org/2000/svg">
<path d="M12.207 1.29102H264.998C271.349 1.29102 276.498 6.43974 276.498 12.791V50.1104C276.498 56.4615 271.349 61.6104 264.998 61.6104H12.207C5.85584 61.6103 0.707153 56.4615 0.707031 50.1104V12.791C0.707033 6.43974 5.85576 1.29102 12.207 1.29102Z" stroke="white" stroke-opacity="0.2"/>
<path opacity="0.5" d="M21.1795 23.791H16.8368V14.607H18.4768V22.3347H21.1795V23.791ZM24.3347 23.791H22.6947V14.607H24.3347V23.791ZM26.1282 21.4688V16.9293C26.1282 16.1421 26.3338 15.5385 26.7449 15.1187C27.1647 14.6901 27.7638 14.4758 28.5423 14.4758C29.3207 14.4758 29.9155 14.6901 30.3266 15.1187C30.7377 15.5385 30.9433 16.1421 30.9433 16.9293V17.7427H29.3951V16.8505C29.3951 16.2208 29.1239 15.9059 28.5817 15.9059C28.0394 15.9059 27.7682 16.2208 27.7682 16.8505V21.5475C27.7682 22.1773 28.0394 22.4921 28.5817 22.4921C29.1239 22.4921 29.3951 22.1773 29.3951 21.5475V20.3798H30.9433V21.4688C30.9433 22.256 30.7377 22.8639 30.3266 23.2925C29.9155 23.7123 29.3207 23.9222 28.5423 23.9222C27.7638 23.9222 27.1647 23.7123 26.7449 23.2925C26.3338 22.8639 26.1282 22.256 26.1282 21.4688ZM37.0778 23.791H32.6039V14.607H37.0778V16.0633H34.2439V18.3331H36.5005V19.7894H34.2439V22.3347H37.0778V23.791ZM40.149 23.791H38.6795V14.607H40.7131L42.3531 20.0125V14.607H43.8226V23.791H42.1695L40.149 17.1654V23.791ZM47.8804 23.9222C47.1019 23.9222 46.5028 23.7123 46.0829 23.2925C45.6718 22.8639 45.4663 22.2691 45.4663 21.5081V21.0358H47.0144V21.5606C47.0144 22.1816 47.2987 22.4921 47.8672 22.4921C48.4358 22.4921 48.72 22.1773 48.72 21.5475C48.72 21.1626 48.6238 20.8609 48.4314 20.6422C48.2477 20.4061 47.876 20.0999 47.3162 19.7238C46.6427 19.2865 46.1704 18.8535 45.8992 18.4249C45.6281 17.9876 45.4925 17.4672 45.4925 16.8637C45.4925 16.1114 45.7024 15.5254 46.1223 15.1056C46.5509 14.6857 47.15 14.4758 47.9197 14.4758C48.6894 14.4758 49.2754 14.6857 49.6778 15.1056C50.0889 15.5254 50.2944 16.1202 50.2944 16.8899V17.2179H48.7463V16.8505C48.7463 16.2208 48.4751 15.9059 47.9328 15.9059C47.3905 15.9059 47.1194 16.2077 47.1194 16.8112C47.1194 17.1523 47.2156 17.4322 47.408 17.6509C47.618 17.887 47.9984 18.1844 48.5495 18.543C49.2405 18.9891 49.7128 19.4308 49.9664 19.8681C50.2288 20.2967 50.36 20.8303 50.36 21.4688C50.36 22.2385 50.1414 22.842 49.704 23.2793C49.2754 23.7079 48.6676 23.9222 47.8804 23.9222ZM56.458 23.791H51.984V14.607H56.458V16.0633H53.624V18.3331H55.8807V19.7894H53.624V22.3347H56.458V23.791ZM60.5656 23.791H58.0597V14.607H60.5656C61.3703 14.607 61.9782 14.8169 62.3893 15.2368C62.8004 15.6479 63.006 16.247 63.006 17.0342V21.3507C63.006 22.1466 62.8004 22.7545 62.3893 23.1744C61.9782 23.5855 61.3703 23.791 60.5656 23.791ZM59.6997 16.0633V22.3347H60.5394C60.828 22.3347 61.038 22.2647 61.1692 22.1248C61.3004 21.9761 61.366 21.7355 61.366 21.4032V16.9949C61.366 16.6625 61.3004 16.4263 61.1692 16.2864C61.038 16.1377 60.828 16.0633 60.5394 16.0633H59.6997ZM70.2851 23.791H67.6742V14.607H70.1539C70.9848 14.607 71.5971 14.7863 71.9907 15.1449C72.3843 15.5035 72.5811 16.059 72.5811 16.8112V17.0736C72.5811 18.0007 72.2269 18.6042 71.5184 18.8841V18.9235C72.3318 19.1859 72.7385 19.8638 72.7385 20.9571V21.4294C72.7385 23.0038 71.9207 23.791 70.2851 23.791ZM69.3142 16.0633V18.3069H69.9571C70.6131 18.3069 70.9411 17.9832 70.9411 17.336V16.9949C70.9411 16.6712 70.8755 16.4351 70.7443 16.2864C70.6131 16.1377 70.3988 16.0633 70.1014 16.0633H69.3142ZM69.3142 19.7632V22.3347H70.2851C70.5737 22.3347 70.7793 22.2647 70.9017 22.1248C71.0329 21.9848 71.0985 21.7487 71.0985 21.4163V20.8915C71.0985 20.4717 71.0198 20.1786 70.8624 20.0125C70.7137 19.8463 70.4425 19.7632 70.0489 19.7632H69.3142ZM77.3218 23.791H75.6818V19.9337L73.7007 14.607H75.4588L76.574 17.9526L77.6892 14.607H79.303L77.3218 19.9337V23.791Z" fill="white"/>
<g clip-path="url(#clip0_230_28002)">
<path d="M34.319 28.4141H40.975V49.3421H34.319M16.207 28.4141H32.399L30.735 33.0221H22.863V37.2461H29.199L27.535 41.8541H22.863V49.4061H16.207M45.391 28.4141H61.583L59.919 33.0221H52.047V37.2461H58.383L56.719 41.8541H52.047V49.4061H45.391M65.807 28.4141L58.191 49.4061H64.655L65.487 46.6541H72.911L73.743 49.4061H80.207L72.591 28.4141M69.199 33.9821L71.695 42.4941H66.703" fill="white"/>
</g>
<path opacity="0.4" d="M179.768 29.4512H177.768V18.2512H183.064V20.0272H179.768V22.9232H182.344V24.6992H179.768V29.4512ZM186.112 29.4512H184.112V18.2512H186.112V29.4512ZM189.643 29.4512H187.643V18.2512H192.939V20.0272H189.643V22.9232H192.219V24.6992H189.643V29.4512ZM199.713 29.4512H197.681L197.345 27.3392H195.073L194.737 29.4512H192.865L194.929 18.2512H197.633L199.713 29.4512ZM196.209 20.2832L195.361 25.6112H197.057L196.209 20.2832ZM208.736 29.4512H203.44V18.2512H205.44V27.6752H208.736V29.4512ZM211.784 29.4512H209.784V18.2512H211.784V29.4512ZM213.171 26.6192V21.0832C213.171 20.1232 213.422 19.3872 213.923 18.8752C214.435 18.3525 215.166 18.0912 216.115 18.0912C217.064 18.0912 217.79 18.3525 218.291 18.8752C218.792 19.3872 219.043 20.1232 219.043 21.0832V22.0752H217.155V20.9872C217.155 20.2192 216.824 19.8352 216.163 19.8352C215.502 19.8352 215.171 20.2192 215.171 20.9872V26.7152C215.171 27.4832 215.502 27.8672 216.163 27.8672C216.824 27.8672 217.155 27.4832 217.155 26.7152V25.2912H219.043V26.6192C219.043 27.5792 218.792 28.3205 218.291 28.8432C217.79 29.3552 217.064 29.6112 216.115 29.6112C215.166 29.6112 214.435 29.3552 213.923 28.8432C213.422 28.3205 213.171 27.5792 213.171 26.6192ZM225.724 29.4512H220.268V18.2512H225.724V20.0272H222.268V22.7952H225.02V24.5712H222.268V27.6752H225.724V29.4512ZM228.669 29.4512H226.877V18.2512H229.357L231.357 24.8432V18.2512H233.149V29.4512H231.133L228.669 21.3712V29.4512ZM237.298 29.6112C236.349 29.6112 235.618 29.3552 235.106 28.8432C234.605 28.3205 234.354 27.5952 234.354 26.6672V26.0912H236.242V26.7312C236.242 27.4885 236.589 27.8672 237.282 27.8672C237.975 27.8672 238.322 27.4832 238.322 26.7152C238.322 26.2458 238.205 25.8778 237.97 25.6112C237.746 25.3232 237.293 24.9498 236.61 24.4912C235.789 23.9578 235.213 23.4298 234.882 22.9072C234.551 22.3738 234.386 21.7392 234.386 21.0032C234.386 20.0858 234.642 19.3712 235.154 18.8592C235.677 18.3472 236.407 18.0912 237.346 18.0912C238.285 18.0912 238.999 18.3472 239.49 18.8592C239.991 19.3712 240.242 20.0965 240.242 21.0352V21.4352H238.354V20.9872C238.354 20.2192 238.023 19.8352 237.362 19.8352C236.701 19.8352 236.37 20.2032 236.37 20.9392C236.37 21.3552 236.487 21.6965 236.722 21.9632C236.978 22.2512 237.442 22.6138 238.114 23.0512C238.957 23.5952 239.533 24.1338 239.842 24.6672C240.162 25.1898 240.322 25.8405 240.322 26.6192C240.322 27.5578 240.055 28.2938 239.522 28.8272C238.999 29.3498 238.258 29.6112 237.298 29.6112ZM246.958 29.4512H241.502V18.2512H246.958V20.0272H243.502V22.7952H246.254V24.5712H243.502V27.6752H246.958V29.4512ZM252.831 29.4512H250.831V18.2512H252.831V29.4512ZM257.418 29.4512H254.362V18.2512H257.418C258.399 18.2512 259.14 18.5072 259.642 19.0192C260.143 19.5205 260.394 20.2512 260.394 21.2112V26.4752C260.394 27.4458 260.143 28.1872 259.642 28.6992C259.14 29.2005 258.399 29.4512 257.418 29.4512ZM256.362 20.0272V27.6752H257.386C257.738 27.6752 257.994 27.5898 258.154 27.4192C258.314 27.2378 258.394 26.9445 258.394 26.5392V21.1632C258.394 20.7578 258.314 20.4698 258.154 20.2992C257.994 20.1178 257.738 20.0272 257.386 20.0272H256.362ZM193.115 45.4512H187.339V44.1072C187.339 43.3285 187.488 42.6458 187.787 42.0592C188.096 41.4512 188.64 40.7898 189.419 40.0752C190.134 39.4138 190.63 38.8752 190.907 38.4592C191.174 38.0538 191.307 37.5952 191.307 37.0832C191.307 36.2725 190.966 35.8672 190.283 35.8672C189.59 35.8672 189.243 36.2618 189.243 37.0512V38.0912H187.355V37.0992C187.355 36.1392 187.611 35.3978 188.123 34.8752C188.635 34.3525 189.371 34.0912 190.331 34.0912C191.291 34.0912 192.027 34.3472 192.539 34.8592C193.051 35.3712 193.307 36.0912 193.307 37.0192C193.307 37.7445 193.115 38.4218 192.731 39.0512C192.347 39.6698 191.675 40.4218 190.715 41.3072C190.182 41.8085 189.814 42.2138 189.611 42.5232C189.419 42.8325 189.323 43.1632 189.323 43.5152V43.6752H193.115V45.4512ZM197.32 45.6112C196.338 45.6112 195.586 45.3498 195.064 44.8272C194.541 44.2938 194.28 43.5472 194.28 42.5872V37.1152C194.28 36.1552 194.541 35.4138 195.064 34.8912C195.586 34.3578 196.338 34.0912 197.32 34.0912C198.29 34.0912 199.037 34.3578 199.56 34.8912C200.082 35.4138 200.344 36.1552 200.344 37.1152V42.5872C200.344 43.5472 200.082 44.2938 199.56 44.8272C199.037 45.3498 198.29 45.6112 197.32 45.6112ZM197.32 43.8352C198.002 43.8352 198.344 43.4512 198.344 42.6832V37.0192C198.344 36.2512 198.002 35.8672 197.32 35.8672C196.626 35.8672 196.28 36.2512 196.28 37.0192V42.6832C196.28 43.4512 196.626 43.8352 197.32 43.8352ZM207.193 45.4512H201.417V44.1072C201.417 43.3285 201.566 42.6458 201.865 42.0592C202.174 41.4512 202.718 40.7898 203.497 40.0752C204.212 39.4138 204.708 38.8752 204.985 38.4592C205.252 38.0538 205.385 37.5952 205.385 37.0832C205.385 36.2725 205.044 35.8672 204.361 35.8672C203.668 35.8672 203.321 36.2618 203.321 37.0512V38.0912H201.433V37.0992C201.433 36.1392 201.689 35.3978 202.201 34.8752C202.713 34.3525 203.449 34.0912 204.409 34.0912C205.369 34.0912 206.105 34.3472 206.617 34.8592C207.129 35.3712 207.385 36.0912 207.385 37.0192C207.385 37.7445 207.193 38.4218 206.809 39.0512C206.425 39.6698 205.753 40.4218 204.793 41.3072C204.26 41.8085 203.892 42.2138 203.689 42.5232C203.497 42.8325 203.401 43.1632 203.401 43.5152V43.6752H207.193V45.4512ZM213.894 45.4512H211.894V43.4992H208.086V41.7392L211.718 34.2512H213.894V41.7232H214.838V43.4992H213.894V45.4512ZM211.894 37.4352L209.894 41.7232H211.894V37.4352ZM219.525 45.4512H217.525V37.0352H215.429V35.6272C216.272 35.6272 216.885 35.5365 217.269 35.3552C217.643 35.1632 217.941 34.7952 218.165 34.2512H219.525V45.4512ZM226.584 45.4512H220.808V44.1072C220.808 43.3285 220.957 42.6458 221.256 42.0592C221.565 41.4512 222.109 40.7898 222.888 40.0752C223.602 39.4138 224.098 38.8752 224.376 38.4592C224.642 38.0538 224.776 37.5952 224.776 37.0832C224.776 36.2725 224.434 35.8672 223.752 35.8672C223.058 35.8672 222.712 36.2618 222.712 37.0512V38.0912H220.824V37.0992C220.824 36.1392 221.08 35.3978 221.592 34.8752C222.104 34.3525 222.84 34.0912 223.8 34.0912C224.76 34.0912 225.496 34.3472 226.008 34.8592C226.52 35.3712 226.776 36.0912 226.776 37.0192C226.776 37.7445 226.584 38.4218 226.2 39.0512C225.816 39.6698 225.144 40.4218 224.184 41.3072C223.65 41.8085 223.282 42.2138 223.08 42.5232C222.888 42.8325 222.792 43.1632 222.792 43.5152V43.6752H226.584V45.4512ZM231.604 41.4672H227.604V39.8352H231.604V41.4672ZM235.567 34.1072C236.538 34.1072 237.285 34.3738 237.807 34.9072C238.33 35.4298 238.591 36.1712 238.591 37.1312V42.5072C238.591 44.5872 237.578 45.6272 235.551 45.6272C234.591 45.6272 233.855 45.3712 233.343 44.8592C232.831 44.3365 232.575 43.6112 232.575 42.6832V42.5712H234.463V42.7312C234.463 43.4778 234.805 43.8512 235.487 43.8512C235.871 43.8512 236.149 43.7445 236.319 43.5312C236.501 43.3072 236.591 42.9392 236.591 42.4272V40.5712C236.186 41.2325 235.573 41.5632 234.751 41.5632C233.269 41.5632 232.527 40.6512 232.527 38.8272V37.1312C232.527 36.1712 232.789 35.4298 233.311 34.9072C233.834 34.3738 234.586 34.1072 235.567 34.1072ZM235.567 35.8832C234.874 35.8832 234.527 36.2618 234.527 37.0192V38.6192C234.527 39.3978 234.874 39.7872 235.567 39.7872C236.25 39.7872 236.591 39.4085 236.591 38.6512V37.0192C236.591 36.2618 236.25 35.8832 235.567 35.8832ZM239.667 42.6192V42.0112C239.667 40.7632 240.12 39.9472 241.027 39.5632V39.5312C240.174 39.1258 239.747 38.3845 239.747 37.3072V36.9552C239.747 36.0272 240.003 35.3178 240.515 34.8272C241.038 34.3365 241.795 34.0912 242.787 34.0912C243.779 34.0912 244.531 34.3365 245.043 34.8272C245.566 35.3178 245.827 36.0272 245.827 36.9552V37.3072C245.827 38.3952 245.406 39.1365 244.563 39.5312V39.5632C245.459 39.9258 245.907 40.7418 245.907 42.0112V42.6192C245.907 44.6138 244.867 45.6112 242.787 45.6112C240.707 45.6112 239.667 44.6138 239.667 42.6192ZM242.787 38.7312C243.502 38.7312 243.859 38.3418 243.859 37.5632V37.0192C243.859 36.2512 243.502 35.8672 242.787 35.8672C242.083 35.8672 241.731 36.2512 241.731 37.0192V37.5632C241.731 38.3418 242.083 38.7312 242.787 38.7312ZM242.787 43.8352C243.182 43.8352 243.47 43.7338 243.651 43.5312C243.832 43.3178 243.923 42.9712 243.923 42.4912V41.8192C243.923 40.9445 243.544 40.5072 242.787 40.5072C242.04 40.5072 241.667 40.9445 241.667 41.8192V42.4912C241.667 42.9712 241.758 43.3178 241.939 43.5312C242.12 43.7338 242.403 43.8352 242.787 43.8352ZM252.519 45.4512H250.519V43.4992H246.711V41.7392L250.343 34.2512H252.519V41.7232H253.463V43.4992H252.519V45.4512ZM250.519 37.4352L248.519 41.7232H250.519V37.4352ZM257.366 45.6112C256.385 45.6112 255.633 45.3498 255.11 44.8272C254.588 44.2938 254.326 43.5472 254.326 42.5872V37.1152C254.326 36.1552 254.588 35.4138 255.11 34.8912C255.633 34.3578 256.385 34.0912 257.366 34.0912C258.337 34.0912 259.084 34.3578 259.606 34.8912C260.129 35.4138 260.39 36.1552 260.39 37.1152V42.5872C260.39 43.5472 260.129 44.2938 259.606 44.8272C259.084 45.3498 258.337 45.6112 257.366 45.6112ZM257.366 43.8352C258.049 43.8352 258.39 43.4512 258.39 42.6832V37.0192C258.39 36.2512 258.049 35.8672 257.366 35.8672C256.673 35.8672 256.326 36.2512 256.326 37.0192V42.6832C256.326 43.4512 256.673 43.8352 257.366 43.8352Z" fill="white"/>
<defs>
<clipPath id="clip0_230_28002">
<rect width="64" height="20.992" fill="white" transform="translate(16.207 28.4141)"/>
</clipPath>
</defs>
</svg>
